<svg width="24" height="24" viewBox="0 0 24 24" fill="none" xmlns="http://www.w3.org/2000/svg">
<path d="M21.4629 10.3917H20.7056V10.3531H12.235V14.1178H17.5549C16.7773 16.309 14.6927 17.8826 12.235 17.8826C9.11552 17.8826 6.58795 15.355 6.58795 12.2355C6.58795 9.11601 9.11552 6.58844 12.235 6.58844C13.6743 6.58844 14.985 7.13072 15.9813 8.01858L18.6431 5.35682C16.9629 3.79064 14.7148 2.82373 12.235 2.82373C7.03648 2.82373 2.82324 7.03697 2.82324 12.2355C2.82324 17.434 7.03648 21.6473 12.235 21.6473C17.4335 21.6473 21.6468 17.434 21.6468 12.2355C21.6468 11.605 21.5824 10.9892 21.4629 10.3917Z" fill="#FBBC05"/>
<path d="M3.9082 7.85498L7.00195 10.1234C7.83835 8.05167 9.86409 6.58844 12.2354 6.58844C13.6747 6.58844 14.9854 7.13072 15.9817 8.01858L18.6435 5.35682C16.9634 3.79064 14.7152 2.82373 12.2354 2.82373C8.6196 2.82373 5.48541 4.86417 3.9082 7.85498Z" fill="#EA4335"/>
<path d="M12.2351 21.6472C14.6653 21.6472 16.8748 20.7171 18.5458 19.2042L15.6322 16.7391C14.6873 17.4542 13.5127 17.8825 12.2351 17.8825C9.78659 17.8825 7.70939 16.3219 6.9263 14.1436L3.85645 16.5075C5.41343 19.5553 8.57703 21.6472 12.2351 21.6472Z" fill="#34A853"/>
<path d="M21.4633 10.3916H20.7059V10.353H12.2354V14.1177H17.5552C17.182 15.171 16.5037 16.0773 15.6306 16.7391C15.6324 16.7391 15.6324 16.7391 15.6324 16.7391L18.546 19.2041C18.3401 19.3898 21.6471 16.9413 21.6471 12.2354C21.6471 11.6049 21.5828 10.9891 21.4633 10.3916Z" fill="#4285F4"/>
</svg>
